<svg xmlns="http://www.w3.org/2000/svg" viewBox="0 0 197.2 258.63"><defs><style>.cls-1{fill:#ffbc1d;}.cls-2{fill:#fcfcfc;fill-rule:evenodd;}</style></defs><g id="Layer_2" data-name="Layer 2"><g id="LOGO"><circle class="cls-1" cx="98.6" cy="92.53" r="92.53" transform="translate(-7.31 8.46) rotate(-4.74)"/><path class="cls-2" d="M115.78,92.53h6.7a2.91,2.91,0,0,0,2-.83,2.87,2.87,0,0,0,.83-2V82H125a3.29,3.29,0,0,0-.58-.78l-23.88-23-.58-.44-.56-.23H97.78l-.42.16-.15.08-.53.38,0,0L72.76,81.23a3,3,0,0,0-.57.78h-.31v7.68a2.85,2.85,0,0,0,2.85,2.84h6.7v11H76.37a2.8,2.8,0,0,0-2,.84,2.86,2.86,0,0,0-.84,2v11.7A2.86,2.86,0,0,0,76.37,121H80.9L71,231.65a43.67,43.67,0,0,1-18.42-7.45,2.84,2.84,0,0,0-3.63,0,34.76,34.76,0,0,1-6.56,3.62A37.94,37.94,0,0,1,27.49,231c-12.62,0-22.82-7.75-22.92-7.83l-.09-.06a2.84,2.84,0,0,0-3.33,4.6c.28.21,11.93,9,26.34,9a44.44,44.44,0,0,0,23.22-6.83c6.31,4.09,14.91,7.6,23.8,7.81a44.45,44.45,0,0,0,24.1-6.81,44.64,44.64,0,0,0,23.23,6.83l2.28-.08a43.08,43.08,0,0,0,11.64-2.45,52.4,52.4,0,0,0,10.74-5.3,44.47,44.47,0,0,0,23.22,6.83c14.41,0,26.06-8.78,26.34-9l1.11-1.88a2.84,2.84,0,0,0-4.52-2.66c-.11.08-10.31,7.83-22.93,7.83a37.94,37.94,0,0,1-14.86-3.12,34.15,34.15,0,0,1-6.55-3.62,2.86,2.86,0,0,0-3.54-.09,43.14,43.14,0,0,1-18.52,7.53L116.31,121h4.53a2.86,2.86,0,0,0,2-.84,2.82,2.82,0,0,0,.84-2v-11.7a2.86,2.86,0,0,0-2.85-2.85h-5.06v-11Zm29,152.57c-.1.09-10.3,7.84-22.93,7.84a38.2,38.2,0,0,1-21.52-6.82,2.87,2.87,0,0,0-3.45,0c-4.71,3.57-13.26,6.81-21.5,6.81-12.63,0-22.82-7.75-22.93-7.83a2.81,2.81,0,0,0-3.53.09,35,35,0,0,1-6.56,3.61,37.93,37.93,0,0,1-14.86,3.13c-12.62,0-22.82-7.76-22.92-7.84a2.86,2.86,0,0,0-4,.56,2.88,2.88,0,0,0,.56,4c.16.12,11.85,9,26.35,9a44.55,44.55,0,0,0,23.22-6.82c6.48,4.2,15.47,7.82,24.66,7.82a44.71,44.71,0,0,0,23.24-6.83,44.64,44.64,0,0,0,23.23,6.83c9.2,0,18.18-3.62,24.66-7.82a44.55,44.55,0,0,0,23.22,6.82c14.5,0,26.19-8.87,26.35-9a2.9,2.9,0,0,0,1.1-1.88,2.84,2.84,0,0,0-4.52-2.66c-.11.08-10.31,7.84-22.93,7.84a38.69,38.69,0,0,1-21.41-6.74,2.86,2.86,0,0,0-3.54-.1ZM110.09,92.53v11h-23v-11h23ZM79.22,109.27H118v6H79.22v-6Zm40.42-24.79v2.36H77.57V84.48l21-20.3,21,20.3ZM86.6,121h24l10,111a38.16,38.16,0,0,1-20.24-6.8,2.87,2.87,0,0,0-3.45,0c-4.45,3.37-12.47,6.5-20.22,6.78Z"/></g></g></svg>